<svg xmlns="http://www.w3.org/2000/svg" viewBox="0 0 184.12 224.52"><defs><style>.cls-1{fill:#c4c4c4;}</style></defs><g id="Lager_2" data-name="Lager 2"><g id="Lager_1-2" data-name="Lager 1"><path class="cls-1" d="M10.87,161.43H178.48L169,143.08l-11.4-21.78a66.68,66.68,0,0,0-39.31-75.92L94.67,0,72.81,43.07A66.54,66.54,0,0,0,63.18,47c-2.57,1.34-50.47,26.55-50.47,26.55l4.7,8.67.05,0,17.13,34.14Zm29.21-34.2,12.14,24.2H27.33Zm23.2,24.2L45.73,116.49l8.62-16.35,25.38,51.29Zm98.74,0h-20a67.19,67.19,0,0,0,11.09-17ZM95.17,22.67l9.7,18.67a67.1,67.1,0,0,0-12.52-1.2c-2.21,0-4.4.13-6.56.34ZM80,51.53a56.19,56.19,0,0,1,12.38-1.39,56.73,56.73,0,0,1,35.16,101.29H90.74L60,89.38ZM65.83,56.92,54.56,78.34,48.41,65.91ZM26.19,77.58l13.53-7.12,9.17,18.66-8.64,16.44Z"/><path class="cls-1" d="M45.88,199.38V195h-6v28.33l-17.25-38.1H17.49L0,223.9H6.41l4.32-9.62H29.24l4.27,9.62H45.88V212.19c0-6.88,3.79-11.33,9.66-11.33h1.31v-6.27l-1,0A11.89,11.89,0,0,0,45.88,199.38Zm-19.14,9.21H13.24L20,193.47Z"/><path class="cls-1" d="M68.34,186.9h-6V195H59.59v5.54h2.75v15.23c0,5.46,3.13,8.59,8.59,8.59a11.09,11.09,0,0,0,5.3-1.26l.54-.28V217.2l-1.44.69a7.38,7.38,0,0,1-3.46.84c-2.47,0-3.53-1-3.53-3.48v-14.7h8.53V195H68.34Z"/><path class="cls-1" d="M100.1,198.36a12.59,12.59,0,0,0-9.3-3.92c-6.71,0-13.84,5.27-13.84,15s7.13,15,13.84,15a12.19,12.19,0,0,0,9.3-4.11v3.54h6v-40h-6Zm.15,11.07c0,5.92-4.43,9.45-8.72,9.45-4.91,0-8.47-4-8.47-9.45s3.48-9.4,8.47-9.4C95.82,200,100.25,203.55,100.25,209.43Z"/><path class="cls-1" d="M123.78,194.44a15,15,0,1,0,15,15A14.9,14.9,0,0,0,123.78,194.44Zm8.88,15.09c0,5.36-3.82,9.41-8.88,9.41s-8.93-4.18-8.93-9.51c0-5.48,3.71-9.45,8.82-9.45S132.66,204.18,132.66,209.53Z"/><path class="cls-1" d="M173.14,194.44a11.35,11.35,0,0,0-9.37,4.51,10.11,10.11,0,0,0-8.73-4.51,10.22,10.22,0,0,0-7.68,3.22V195h-6V223.9h6V207.56c0-4.33,2.73-7.48,6.49-7.48s5.91,2.56,5.91,7V223.9h6V207.4c0-5.05,3.24-7.32,6.44-7.32,3.85,0,6,2.53,6,7.11V223.9h6V206.26C184.12,199,179.91,194.44,173.14,194.44Z"/></g></g></svg>