<svg xmlns="http://www.w3.org/2000/svg" viewBox="0 0 167.49 127.59"><defs><style>.cls-1{fill:#c4c4c4;}</style></defs><g id="Lager_2" data-name="Lager 2"><g id="Lager_1-2" data-name="Lager 1"><path class="cls-1" d="M167.46,83a5,5,0,0,0-4.93-4.5c-4.72,0-9.43,0-14.14,0-2.78,0-3.7-.93-3.7-3.76,0-6.31,0-12.63,0-18.95s-3.05-11-8.34-14.21a15.23,15.23,0,0,0-9.32-2c-7.81.57-14.51,7.48-14.64,15.28-.09,6.23,0,12.47,0,18.71q0,18.83,0,37.66a6.08,6.08,0,0,1-8.19,5.85c-2.57-1-4-3.24-4-6.46q0-33.22,0-66.44a15.07,15.07,0,0,0-5.77-12,16.35,16.35,0,0,0-5.49-3.06,16.15,16.15,0,0,0-21,15.58q0,27.42,0,54.82c0,.44,0,.88,0,1.32a5.9,5.9,0,0,1-4.41,5.22,6,6,0,0,1-7.67-6c0-9,0-18,0-27a21.47,21.47,0,0,0-.2-3.11A16.17,16.17,0,0,0,25,65.21c-1.59,3.14-1.76,6.5-1.71,9.92,0,2.43-1,3.4-3.42,3.4-4.91,0-9.82,0-14.74,0a5,5,0,1,0,.06,10.08c6,0,12,0,18-.05a10.5,10.5,0,0,0,10.13-9.13c.31-2.55-.06-5.12.19-7.67a5.78,5.78,0,0,1,3.65-5,5.68,5.68,0,0,1,6,.74,6.4,6.4,0,0,1,2.48,5.56q0,13.62,0,27.23a14.35,14.35,0,0,0,.25,2.86A16.17,16.17,0,0,0,77.94,100c-.11-18.23,0-36.46,0-54.7a8.49,8.49,0,0,1,.34-2.6,6.07,6.07,0,0,1,11.85,2c0,22.43,0,44.86,0,67.29a14.11,14.11,0,0,0,3.56,9.47,3.89,3.89,0,0,0,.25.4,16.16,16.16,0,0,0,28.51-10.39c0-5.31,0-10.63,0-15.95q0-19.85,0-39.7a6,6,0,0,1,5.39-6.14c3.8-.38,6.78,2.42,6.79,6.45,0,7.39,0,14.79,0,22.18A10.51,10.51,0,0,0,145,88.57h17.13a6.79,6.79,0,0,0,1.43-.11A5,5,0,0,0,167.46,83Z"/><path class="cls-1" d="M39.52,50.19A11.18,11.18,0,1,0,28.35,38.86,11.2,11.2,0,0,0,39.52,50.19Z"/><path class="cls-1" d="M83.83,22.31A11.11,11.11,0,0,0,95.16,11.18,11.17,11.17,0,1,0,83.83,22.31Z"/><path class="cls-1" d="M128.47,33.42a11.06,11.06,0,0,0,11.19-11,10.84,10.84,0,0,0-3.16-7.9c-2.62-2.67-5.9-3.3-9.5-3.23-4.92.09-9.63,5.41-9.63,11A11,11,0,0,0,128.47,33.42Z"/></g></g></svg>