<svg xmlns="http://www.w3.org/2000/svg" viewBox="0 0 75.22 69.29"><defs><style>.cls-1{fill:#c4c4c4;}</style></defs><g id="Lager_2" data-name="Lager 2"><g id="Lager_1-2" data-name="Lager 1"><polygon class="cls-1" points="9.84 69.18 11.55 69.18 14.83 59.37 13.11 59.37 10.67 66.57 8.24 59.37 6.7 59.37 4.22 66.54 1.84 59.37 0 59.37 3.28 69.18 5.03 69.18 7.43 62.14 9.84 69.18"/><path class="cls-1" d="M20.08,59.37H18.47L14,69.18h1.85l1-2.35h4.7l1,2.35h1.89Zm.88,6H17.58l1.69-3.85Z"/><polygon class="cls-1" points="32.82 67.58 27.74 67.58 27.74 59.37 25.97 59.37 25.97 69.18 32.82 69.18 32.82 67.58"/><path class="cls-1" d="M43.21,66.43a2.54,2.54,0,0,0-.52-1.64h0a2.44,2.44,0,0,0-1-.74,2.7,2.7,0,0,0,.61-.65A2.53,2.53,0,0,0,42.71,62a2.3,2.3,0,0,0-1-2,4.41,4.41,0,0,0-2.62-.68H34.71v9.81H39.4a4.75,4.75,0,0,0,2.8-.7A2.38,2.38,0,0,0,43.21,66.43Zm-1.79-.11a1.09,1.09,0,0,1-.47,1h0a2.91,2.91,0,0,1-1.59.34H36.48V65h2.87C41.42,65,41.42,66,41.42,66.32Zm-4.94-2.87V60.88H39a2.59,2.59,0,0,1,1.47.35,1.19,1.19,0,0,1,0,1.88,2.6,2.6,0,0,1-1.47.34Z"/><path class="cls-1" d="M52.26,59.91a5.77,5.77,0,0,0-5.32,0,4.83,4.83,0,0,0-1.87,1.8,5.18,5.18,0,0,0,0,5.13,4.83,4.83,0,0,0,1.87,1.8,5.77,5.77,0,0,0,5.32,0,4.81,4.81,0,0,0,1.86-1.8,5.2,5.2,0,0,0,0-5.14A4.71,4.71,0,0,0,52.26,59.91ZM53,64.27A3.42,3.42,0,0,1,52.58,66a3.29,3.29,0,0,1-1.22,1.21h0a3.5,3.5,0,0,1-1.75.44,3.63,3.63,0,0,1-1.77-.44A3.25,3.25,0,0,1,46.61,66a3.51,3.51,0,0,1-.44-1.74,3.45,3.45,0,0,1,.44-1.73,3.27,3.27,0,0,1,1.23-1.22,3.63,3.63,0,0,1,1.77-.44,3.53,3.53,0,0,1,1.75.44,3.32,3.32,0,0,1,1.22,1.22A3.38,3.38,0,0,1,53,64.27Z"/><path class="cls-1" d="M63.82,64.83a3.4,3.4,0,0,0,.57-2,3.15,3.15,0,0,0-1.12-2.56,4.57,4.57,0,0,0-3-.92H56.39v9.81h1.77V66.32h2.59l2,2.87h2l-2.3-3.27A3.09,3.09,0,0,0,63.82,64.83Zm-1.2-2a1.67,1.67,0,0,1-.59,1.4,2.75,2.75,0,0,1-1.81.5H58.16V61h2.06a2.81,2.81,0,0,1,1.81.5A1.66,1.66,0,0,1,62.62,62.85Z"/><path class="cls-1" d="M72.37,64v1.54h1v1.62a3.86,3.86,0,0,1-2,.5,3.72,3.72,0,0,1-1.8-.44A3.33,3.33,0,0,1,68.3,66a3.59,3.59,0,0,1,0-3.48,3.23,3.23,0,0,1,1.25-1.21,3.81,3.81,0,0,1,1.83-.44,3.55,3.55,0,0,1,2.57,1l.15.14,1.12-1.12-.13-.15a4.41,4.41,0,0,0-1.64-1.14,5.81,5.81,0,0,0-2.13-.38,5.53,5.53,0,0,0-2.68.64,4.72,4.72,0,0,0-1.88,1.8,5,5,0,0,0-.68,2.57,4.87,4.87,0,0,0,2.55,4.37,5.48,5.48,0,0,0,2.66.65,6.35,6.35,0,0,0,2-.32A5.32,5.32,0,0,0,75,68l.08-.06V64H72.37Z"/><path class="cls-1" d="M61.23,0h-.09L51.81,37.89s-4.19-3.31-8.92-7.1l5-4.56C59,16.54,46.49,2.69,37.88,11h0c-8.59-8.28-21.09,5.48-10.07,15.17l2.81,2.57,4.86-3.89-2.49-2c-8-6.28-.12-12.6,4.35-5.88.18.24.5.71.54.77h0c0-.06.36-.53.54-.77,4.47-6.72,12.39-.4,4.35,5.88-1.35,1.1-10.33,8.32-10.33,8.32h0L24,37.89,14.62,0H7.8L20.12,49.42S30,41.55,37.88,35c7.87,6.57,17.76,14.44,17.76,14.44L68,0Z"/></g></g></svg>