<svg xmlns="http://www.w3.org/2000/svg" viewBox="0 0 71.45 207.25"><defs><style>.cls-1{fill:rgba(255, 255, 255, 0.2);stroke:#FFD9F3}</style></defs><g id="Lager_2" data-name="Lager 2"><g id="Lager_1-2" data-name="Lager 1"><path class="cls-1" d="M35.72,203C20.44,203,8,189.57,8,173V80.93H63.44V173C63.44,189.57,51,203,35.72,203Z"/><path fill='#FFD9F3' d="M6.66,56.71H0v5.38H6.66V175.81c0,17.33,13,31.44,29.06,31.44s29.06-14.11,29.06-31.44V62.09h6.67V56.71H6.66ZM59.4,76.66H33a7,7,0,0,0-14,0H12.05V62.53H59.4Zm-37.74,0a4.31,4.31,0,0,1,8.61,0ZM35.72,201.42c-13,0-23.67-11.49-23.67-25.61V82H59.4v16.9H41.8v5.38H59.4v8.81H41.8v5.38H59.4v8.81H41.8v5.39H59.4v8.81H41.8v5.38H59.4v8.81H41.8v5.38H59.4v14.72C59.4,189.93,48.78,201.42,35.72,201.42Z"/><path fill='#FFD9F3' d="M24.55,36.91a8.09,8.09,0,1,0-8.08-8.08A8.09,8.09,0,0,0,24.55,36.91Zm0-12.81a4.73,4.73,0,1,1-4.72,4.73A4.73,4.73,0,0,1,24.55,24.1Z"/><path fill='#FFD9F3' d="M47.6,37.54a5.77,5.77,0,1,0,5.76,5.77A5.77,5.77,0,0,0,47.6,37.54Zm0,8.5a2.74,2.74,0,1,1,2.73-2.73A2.74,2.74,0,0,1,47.6,46Z"/><rect x="51.08" width="2.02" height="5.26"/><rect x="56.63" y="5.36" width="5.26" height="2.02" transform="matrix(0.79, -0.61, 0.61, 0.79, 8.49, 37.6)"/><rect x="59.68" y="11.7" width="2.02" height="5.26" transform="translate(31.59 69.49) rotate(-75.47)"/><rect x="54.26" y="17.71" width="2.02" height="5.26" transform="translate(-3.54 23.42) rotate(-23.2)"/><rect x="44.57" y="18.72" width="5.26" height="2.02" transform="translate(7.04 51.41) rotate(-60.94)"/><rect x="40.12" y="11.96" width="5.26" height="2.02" transform="translate(-1.47 6.59) rotate(-8.67)"/><rect x="44.36" y="2.69" width="2.02" height="5.26" transform="translate(10.23 34.51) rotate(-46.4)"/></g></g></svg>