<svg xmlns="http://www.w3.org/2000/svg" viewBox="0 0 71.45 187.68"><defs><style>.cls-1{fill:rgba(255, 255, 255, 0.2);}</style></defs><g id="Lager_2" data-name="Lager 2"><g id="Lager_1-2" data-name="Lager 1"><path class="cls-1" d="M35.66,183.68c-15,0-27.13-13.17-27.13-29.35V69.15H62.79v85.18C62.79,170.51,50.62,183.68,35.66,183.68Z"/><path fill='#FFD9F3' d="M36.83,37.14a8,8,0,0,0,1.79-5.06,8.09,8.09,0,1,0-14.39,5.06H0v5.38H6.66V156.24c0,17.34,13,31.44,29.06,31.44s29.06-14.1,29.06-31.44v-87h0V63.28h0V42.52h6.67V37.14H36.83Zm-6.3-9.78a4.72,4.72,0,1,1-4.72,4.72A4.73,4.73,0,0,1,30.53,27.36Zm28.87,52H41.8v5.38H59.4v8.81H41.8V99H59.4v8.81H41.8v5.38H59.4V122H41.8v5.38H59.4v8.81H41.8v5.39H59.4v14.71c0,14.13-10.62,25.62-23.68,25.62s-23.67-11.49-23.67-25.62v-87H59.4ZM43.31,63.28a2.74,2.74,0,0,1,5.47,0Zm8.5,0a5.77,5.77,0,0,0-11.53,0H12.05V43H59.4V63.28Z"/><path fill='#FFD9F3' d="M46.05,11.53a5.77,5.77,0,1,0-5.77-5.77A5.78,5.78,0,0,0,46.05,11.53Zm0-8.5a2.74,2.74,0,1,1-2.74,2.73A2.74,2.74,0,0,1,46.05,3Z"/></g></g></svg>