<svg xmlns="http://www.w3.org/2000/svg" viewBox="0 0 71.45 185.62"><defs><style>.cls-1{fill:rgba(255, 255, 255, 0.2);}</style></defs><g id="Lager_2" data-name="Lager 2"><g id="Lager_1-2" data-name="Lager 1"><path class="cls-1" d="M35.72,182.61C20.6,182.61,8.3,169.31,8.3,153V52.08H63.15V153C63.15,169.31,50.84,182.61,35.72,182.61Z"/><path fill='#FFD9F3' d="M6.66,35.08H0v5.38H6.66V154.18c0,17.34,13,31.44,29.06,31.44s29.06-14.1,29.06-31.44V52.74h0V46.82h0V40.46h6.67V35.08H6.66ZM59.4,77.31H41.8v5.38H59.4V91.5H41.8v5.38H59.4v8.82H41.8v5.38H59.4v8.81H41.8v5.38H59.4v8.81H41.8v5.38H59.4v14.72c0,14.12-10.62,25.61-23.68,25.61S12.05,168.3,12.05,154.18V52.74H59.4ZM12.05,46.82V40.9H59.4v5.92Z"/><path fill='#FFD9F3' d="M27.47,31.81a8.09,8.09,0,0,0,7.7-10.57,11,11,0,0,0,3.16.47,10.89,10.89,0,1,0-9.69-6,8.94,8.94,0,0,0-1.17-.09,8.09,8.09,0,0,0,0,16.17ZM38.33,3a7.83,7.83,0,1,1-7.83,7.83A7.84,7.84,0,0,1,38.33,3ZM27.47,19a4.73,4.73,0,1,1-4.72,4.73A4.73,4.73,0,0,1,27.47,19Z"/></g></g></svg>