<svg xmlns="http://www.w3.org/2000/svg" viewBox="0 0 71.45 192.49"><defs><style>.cls-1{fill:rgba(255, 255, 255, 0.2);}</style></defs><g id="Lager_2" data-name="Lager 2"><g id="Lager_1-2" data-name="Lager 1"><path class="cls-1" d="M36.06,189.49c-15.11,0-27.42-13.31-27.42-29.67V101.07H63.49v58.75C63.49,176.18,51.18,189.49,36.06,189.49Z"/><path fill='#FFD9F3' d="M6.66,42H0v5.38H6.66V161.05c0,17.34,13,31.44,29.06,31.44s29.06-14.1,29.06-31.44V47.33h6.67V42H6.66ZM59.4,84.18H41.8v5.38H59.4v8.81H36a8.09,8.09,0,0,0-16.18,0H12.05V47.78H59.4ZM23.16,98.37a4.73,4.73,0,0,1,9.45,0Zm12.56,88.3c-13,0-23.67-11.49-23.67-25.62V103.76H59.4v8.81H41.8V118H59.4v8.81H41.8v5.38H59.4V141H41.8v5.38H59.4v14.71C59.4,175.18,48.78,186.67,35.72,186.67Z"/><path fill='#FFD9F3' d="M40.79,16.18A8.09,8.09,0,1,0,32.7,8.09,8.1,8.1,0,0,0,40.79,16.18Zm0-12.82a4.73,4.73,0,1,1-4.72,4.73A4.73,4.73,0,0,1,40.79,3.36Z"/><path fill='#FFD9F3' d="M40.79,73.4A5.77,5.77,0,1,0,35,67.63,5.77,5.77,0,0,0,40.79,73.4Zm0-8.5a2.74,2.74,0,1,1-2.74,2.73A2.73,2.73,0,0,1,40.79,64.9Z"/><rect x="14.47" y="16.73" width="2.69" height="5.05" transform="translate(-9.06 20.6) rotate(-53.69)"/><rect x="21.44" y="13.31" width="2.69" height="5.05" transform="translate(-0.39 0.57) rotate(-1.42)"/><rect x="27.22" y="17.9" width="5.05" height="2.69" transform="translate(-5.47 23.11) rotate(-39.16)"/><rect x="29.96" y="24.32" width="2.69" height="5.05" transform="translate(-1.94 51.24) rotate(-76.9)"/><rect x="24.91" y="30.2" width="2.69" height="5.05" transform="translate(-11.25 13.91) rotate(-24.62)"/><rect x="15.98" y="30.99" width="5.05" height="2.68" transform="translate(-18.72 33.73) rotate(-62.36)"/><rect x="11.56" y="24.62" width="5.05" height="2.69" transform="translate(-4.33 2.87) rotate(-10.09)"/></g></g></svg>