<svg xmlns="http://www.w3.org/2000/svg" viewBox="0 0 71.45 183.43"><defs><style>.cls-1{fill:rgba(255, 255, 255, 0.2);}</style></defs><g id="Lager_2" data-name="Lager 2"><g id="Lager_1-2" data-name="Lager 1"><path class="cls-1" d="M35.9,179.43c-15,0-27.13-13.17-27.13-29.35V55.9H63v94.18C63,166.26,50.86,179.43,35.9,179.43Z"/><path fill='#FFD9F3' d="M41.8,11.53A5.77,5.77,0,1,0,36,5.76,5.77,5.77,0,0,0,41.8,11.53Zm0-8.5a2.74,2.74,0,1,1-2.74,2.73A2.73,2.73,0,0,1,41.8,3Z"/><path fill='#FFD9F3' d="M40.08,32.89a12.21,12.21,0,0,0-24.41,0H0v5.39H6.66V152c0,17.34,13,31.44,29.06,31.44S64.78,169.33,64.78,152V38.28h6.67V32.89H40.08Zm19.32,20H51.22a5.59,5.59,0,0,0,.59-2.51,5.77,5.77,0,1,0-10.94,2.51H12.05V38.72H17a12.21,12.21,0,0,0,21.81,0H59.4ZM43.31,50.33a2.74,2.74,0,1,1,3.81,2.51H45A2.74,2.74,0,0,1,43.31,50.33ZM27.87,42.08a8.85,8.85,0,0,1-6.93-3.36H34.81A8.87,8.87,0,0,1,27.87,42.08Zm0-17.72a8.86,8.86,0,0,1,8.85,8.53H19A8.86,8.86,0,0,1,27.87,24.36Zm7.85,153.25c-13,0-23.67-11.49-23.67-25.62V58.23H59.4V75.12H41.8V80.5H59.4v8.82H41.8V94.7H59.4v8.81H41.8v5.38H59.4v8.81H41.8v5.39H59.4v8.81H41.8v5.38H59.4V152C59.4,166.12,48.78,177.61,35.72,177.61Z"/></g></g></svg>