<svg xmlns="http://www.w3.org/2000/svg" viewBox="0 0 71.45 196.45"><defs><style>.cls-1{fill:rgba(255, 255, 255, 0.2);}</style></defs><g id="Lager_2" data-name="Lager 2"><g id="Lager_1-2" data-name="Lager 1"><path class="cls-1" d="M36.19,193.45c-15.12,0-27.42-13.31-27.42-29.67V56.91H63.61V163.78C63.61,180.14,51.31,193.45,36.19,193.45Z"/><path fill='#FFD9F3' d="M33.17,25a5.16,5.16,0,0,0,5.15,5.15,4.59,4.59,0,0,0,1-.1,10.43,10.43,0,0,0-.37,2.75,10.73,10.73,0,1,0,4.45-8.68A5.14,5.14,0,0,0,33.17,25Zm16.47.45a7.35,7.35,0,1,1-7.35,7.35A7.35,7.35,0,0,1,49.64,25.4ZM38.32,22.83A2.13,2.13,0,1,1,36.19,25,2.12,2.12,0,0,1,38.32,22.83Z"/><path fill='#FFD9F3' d="M27.9,13.84A6.92,6.92,0,1,0,21,6.92,6.93,6.93,0,0,0,27.9,13.84ZM27.9,3A3.89,3.89,0,1,1,24,6.92,3.89,3.89,0,0,1,27.9,3Z"/><path fill='#FFD9F3' d="M6.66,45.91H0v5.38H6.66V165c0,17.34,13,31.44,29.06,31.44S64.78,182.35,64.78,165V51.29h6.67V45.91H6.66ZM59.4,53.53H12.05v-1.8H59.4ZM35.72,190.63c-13,0-23.67-11.49-23.67-25.62V58.91H59.4V88.14H41.8v5.38H59.4v8.81H41.8v5.39H59.4v8.81H41.8v5.38H59.4v8.81H41.8v5.38H59.4v8.81H41.8v5.39H59.4V165C59.4,179.14,48.78,190.63,35.72,190.63Z"/></g></g></svg>