<svg xmlns="http://www.w3.org/2000/svg" viewBox="0 0 71.45 176.65"><defs><style>.cls-1{fill:rgba(255, 255, 255, 0.2);}</style></defs><g id="Lager_2" data-name="Lager 2"><g id="Lager_1-2" data-name="Lager 1"><path class="cls-1" d="M35.72,173.65C20.6,173.65,8.3,160.34,8.3,144V70.23H63.15V144C63.15,160.34,50.84,173.65,35.72,173.65Z"/><rect x="39.79" y="39.01" width="2.02" height="3.79" transform="translate(-16.33 49.57) rotate(-53.69)"/><rect x="45.03" y="36.45" width="2.02" height="3.79" transform="translate(-0.94 1.16) rotate(-1.43)"/><rect x="49.37" y="39.9" width="3.79" height="2.02" transform="translate(-14.32 41.57) rotate(-39.16)"/><rect x="51.44" y="44.72" width="2.02" height="3.79" transform="translate(-4.85 87.12) rotate(-76.89)"/><rect x="47.64" y="49.14" width="2.02" height="3.79" transform="translate(-16.85 24.92) rotate(-24.63)"/><rect x="40.93" y="49.73" width="3.79" height="2.02" transform="translate(-21.99 65.15) rotate(-62.37)"/><rect x="37.6" y="44.95" width="3.79" height="2.02" transform="translate(-7.44 7.63) rotate(-10.09)"/><path fill='#FFD9F3' d="M26.8,63a5.15,5.15,0,1,0-5.15-5.15A5.16,5.16,0,0,0,26.8,63Zm0-7.28a2.13,2.13,0,1,1-2.12,2.13A2.13,2.13,0,0,1,26.8,55.69Z"/><path fill='#FFD9F3' d="M40.38,19.33a9.67,9.67,0,1,0-9.67-9.66A9.67,9.67,0,0,0,40.38,19.33Zm0-16.3a6.64,6.64,0,1,1-6.64,6.64A6.65,6.65,0,0,1,40.38,3Z"/><path d="M71.45,26.11H0V31.5H6.66V145.21c0,17.34,13,31.44,29.06,31.44s29.06-14.1,29.06-31.44V31.5h6.67ZM59.4,68.34H12.05V31.94H59.4ZM35.72,170.83c-13,0-23.67-11.49-23.67-25.62V73.72H59.4v8.82H41.8v5.38H59.4v8.81H41.8v5.38H59.4v8.81H41.8v5.39H59.4v8.81H41.8v5.38H59.4v14.71C59.4,159.34,48.78,170.83,35.72,170.83Z"/></g></g></svg>