<svg xmlns="http://www.w3.org/2000/svg" viewBox="0 0 180.24 131.48"><defs><style>.cls-1{fill:#c4c4c4;}</style></defs><g id="Lager_2" data-name="Lager 2"><g id="Lager_1-2" data-name="Lager 1"><path class="cls-1" d="M78.25,86c-5,.81-7.87,5.38-7.07,10.33s5,8.44,10,7.63,7.87-5.38,7.07-10.32S83.26,85.22,78.25,86Z"/><path class="cls-1" d="M106,84.68a.74.74,0,0,0-1.35.21l-2,8a.75.75,0,0,0,.85.93l6.44-1a.76.76,0,0,0,.51-1.15Z"/><path class="cls-1" d="M180.24,107.11l-8.27-55-21.39,3.52V0H0V78.64H22.7L32,131.48Zm-114.36.51A12.86,12.86,0,0,1,57.73,112a13.24,13.24,0,0,1-4-26.16A13.31,13.31,0,0,1,62.29,87a2.1,2.1,0,0,1,.81,3l-.12.2a2.08,2.08,0,0,1-2.72.76,9.3,9.3,0,0,0-5.94-1c-4.84.78-7.7,5.31-6.89,10.29s5,8.46,9.79,7.68a9.13,9.13,0,0,0,5.56-3.07,2.1,2.1,0,0,1,3.1,2.82Zm15.93.46A13.23,13.23,0,1,1,92.94,92.84,13,13,0,0,1,81.81,108.08Zm37.3-6.47-1.2.2a1.61,1.61,0,0,1-1.62-.74l-2.66-4.26a.93.93,0,0,0-.93-.42L102,98.12a.92.92,0,0,0-.75.7L100,103.7a1.63,1.63,0,0,1-1.31,1.21l-1.06.17a1.61,1.61,0,0,1-1.82-2L102,79.26a1.61,1.61,0,0,1,1.3-1.19l2-.33a1.65,1.65,0,0,1,1.62.72l13.31,20.69A1.61,1.61,0,0,1,119.11,101.61Zm13.11-1.74A15.64,15.64,0,0,1,123,98.6a2,2,0,0,1-.9-2.84l.11-.19a2,2,0,0,1,2.63-.74,11,11,0,0,0,6.86,1.09c2.74-.45,4.27-2,4-3.94s-1.47-2.65-6.33-3c-5.59-.43-8.88-1.53-9.63-6.22-.71-4.41,2.42-8,7.43-8.76a14.28,14.28,0,0,1,7.76.77,2,2,0,0,1,1,2.73l-.11.23a2,2,0,0,1-2.52.94,10.66,10.66,0,0,0-5.6-.72c-2.59.42-3.89,2-3.62,3.69.32,2,1.61,2.67,6.64,3,5.55.44,8.63,1.9,9.31,6.12C140.78,95.6,137.52,99,132.22,99.87Zm27.52-28.62A2.09,2.09,0,0,1,158,73.64l-5.48.88a.47.47,0,0,0-.39.55l3,18.62a2.09,2.09,0,0,1-1.72,2.39l-.36,0a2.08,2.08,0,0,1-2.39-1.72l-3-18.62a.46.46,0,0,0-.54-.39l-5.49.88a2.08,2.08,0,1,1-.66-4.11l16.38-2.65A2.09,2.09,0,0,1,159.74,71.25ZM111.47,16.08l5.89,12.49,5.91-12h11.51L123.21,38.66l10.08,19.77-10.88,1.79-5.06-11.08-6,11.08H100.43L111.5,39.12,99.75,17.63ZM73.21,17.55l24.08.08.78,9.15H85.2V35.5h8.29V43.1h-8.3v9.08H98.43l-.66,9.22-24.59,0Zm-25.89-1h12l0,35.61h9.51l.76,8.68-22.27,1Zm-28.86,0H42.63L43.75,26H30.45V36h8.83l-.89,7.42h-8V61.33h-12Z"/></g></g></svg>